# xmcd
#
# Track frame offsets: 
#        150
#        14252
#        28297
#        46885
#        59089
#        75860
#        95825
#        106080
#        127000
#        141142
#        154222
#        170607
#        182335
#        204972
#        219645
#        242550
#        253505
#        270495
#
# Disc length: 3823 seconds
#
# Revision: 4
# Processed by: cddbd v1.5.2PL0 Copyright (c) Steve Scherf et al.
# Submitted via: ExactAudioCopy v0.99pb4
#
DISCID=f50eed12
DTITLE=Big Joe Duskin - Cincinnati Stomp
DYEAR=1979
DGENRE=Blues
TTITLE0=Mean Old Frisco
TTITLE1=Roll 'Em Pete
TTITLE2=Stormin' In Texas
TTITLE3=Cincinnati Stomp
TTITLE4=Little Red Rooster
TTITLE5=The Tribute
TTITLE6=Down The Road Apiece
TTITLE7=Well, Well Baby
TTITLE8=Honky Tonk Train
TTITLE9=Beat Me Daddy, Eight To The Bar
TTITLE10=Tender Hearted Woman
TTITLE11=Stoop Down Baby
TTITLE12=Betty And Dupree
TTITLE13=Yancey Special
TTITLE14=Slidell Blues
TTITLE15=Dollar Bill Boogie
TTITLE16=I Met A Girl Named Martha
TTITLE17=Boogie Woogie Prayer
EXTD=
EXTT0=
EXTT1=
EXTT2=
EXTT3=
EXTT4=
EXTT5=
EXTT6=
EXTT7=
EXTT8=
EXTT9=
EXTT10=
EXTT11=
EXTT12=
EXTT13=
EXTT14=
EXTT15=
EXTT16=
EXTT17=
PLAYORDER=
